<?xml version="1.0" standalone="no"?><!DOCTYPE svg PUBLIC "-//W3C//DTD SVG 1.1//EN" "http://www.w3.org/Graphics/SVG/1.1/DTD/svg11.dtd"><svg class="icon" height="512" viewBox="0 0 1024 1024" version="1.1" xmlns="http://www.w3.org/2000/svg"><path d="M371.032807 592.426367s-174.763542-6.069288-280.177487 137.996437c-76.025814 78.709078-108.065265 124.100962-42.708619 218.845737 65.388589 94.744775 667.142493 65.388589 779.232654 50.694524 112.058217-14.694065 209.486257-68.03991 184.123023-149.464196-25.363234-81.360399-196.133824-273.533214-361.569829-264.173733-165.467949 9.327537-278.899742 6.101231-278.899742 6.101231z" fill="#456D92" /><path d="M383.011664 546.778935a143.682401 126.11341 90 1 0 252.22682 0 143.682401 126.11341 90 1 0-252.22682 0Z" fill="#FACBAB" /><path d="M313.023194 311.194741s-22.999406-30.985311-34.531053 0 30.18672 75.418886 48.905682 82.190933c18.687017 6.70816-14.374629-82.190933-14.374629-82.190933zM699.285441 304.646299s21.018902-29.963115 31.59224 0c10.509451 29.963115-27.663174 72.959227-44.784955 79.443782-17.089836 6.516498 13.192715-79.443782 13.192715-79.443782z" fill="#FDCAA8" /><path d="M704.556138 317.902901c0 152.371065-87.46163 275.897042-195.431064 275.897042-107.93749 0-200.797592-128.892505-200.797592-281.231626 0-152.403009 92.860102-270.562457 200.797592-270.562457 62.577551 0 139.593617 41.494762 175.402415 106.020873 25.970163 46.86129 20.028649 105.797268 20.028649 169.876168z" fill="#FFD8BB" /><path d="M312.575983 319.468139s-56.604094-184.953557 35.872685-241.589595c92.444835-56.604094 22.616083-5.622077 0-45.296052 28.302047-36.767106 210.412622-12.26635 232.134283-15.077389 21.689718-2.842982 41.526705 56.636037 41.526705 56.636038s71.681482 31.113085 81.136794 73.534212c9.423368 42.516958 24.500756 134.003484-7.570638 156.683454-29.228412-13.224658 0-76.441081-24.564643-84.938085-24.500756-8.497003-35.808797 32.103338-73.566156 30.218664-37.757358-1.884674-72.89534-2.20411-109.470784-26.449316-44.369688-42.45307-107.586111-27.343738-130.234137-15.109333-22.584139 12.298294-45.264109 111.387401-45.264109 111.387402z" fill="#1C1B19" /><path d="M385.854647 577.79619l-85.576957 20.923071 122.950991 202.778096s31.24086-83.30896 80.689583-87.844953c49.448723-4.50405 92.764271 81.520117 92.764271 81.520117s124.037075-192.332533 119.021927-201.755901-82.829805-10.253902-82.829806-10.253902-61.747017 110.524924-127.550872 104.168143c-65.8358-6.324837-107.681941-73.374494-107.681942-73.374494" fill="#FFFFFF" /><path d="M281.846221 605.714913l18.431469-6.995652 122.950991 202.778096-10.381676 17.888427zM731.772102 600.380329l-13.096884-6.995653-122.950991 202.746153 10.381676 17.920371z" fill="#B50000" /><path d="M840.412352 647.592998L479.193903 1015.647382h70.819004L870.31158 668.899393z" fill="#55534F" /><path d="M870.822678 668.196633L509.604229 1018.458421h70.882891l320.202842-329.97759z" fill="#4B443A" /><path d="M514.172166 703.749881c-177.350976 0-321.097263 107.1389-321.097263 239.225767 0 19.262003 3.130475 37.917076 8.880326 55.837447 17.82454 4.472107 42.868337 9.423368 77.016067 13.703813a146.844819 146.844819 0 0 1-17.82454-69.54126c0-29.100637 8.848383-56.636037 24.628531-81.232624l122.567668 80.370146s-19.581439 42.740563 7.123427 65.867744c26.672922 23.095237 176.105174 19.549495 199.232355 0 23.159124-19.549495 5.334584-65.867743 5.334584-65.867744l120.076066-84.043663c17.345385 25.522952 27.18402 54.399984 27.18402 84.906141 0 24.053545-6.133175 47.021008-17.089836 68.167684 23.797997-1.884674 48.586245-3.992952 74.300859-6.420668a183.03694 183.03694 0 0 0 10.828887-61.747016c-0.031944-132.086867-143.810175-239.225767-321.161151-239.225767z m40.025355 190.383973c-55.134687-30.282551-90.687936 0-90.687935 0l-120.10801-90.272669c45.00856-30.729762 104.966734-49.416779 170.802534-49.416779 66.027462 0 126.145353 18.846736 171.153913 49.704272-19.932819 14.853783-86.694983 63.727521-131.160502 89.985176z" fill="#2F2F2F" /></svg>